#!OML:ASF H:\Terrain\Patient Classification 1\Walking\liu\liu.ASF
:FULLY-SPECIFIED
:DEGREES
326
root 10.5116 16.6182 12.6025 6.7069 6.30625 5.08615
lowerback -8.03199 -3.6972 -7.70268
upperback -1.15159 -4.30517 1.48486
thorax 3.98387 -2.26567 5.37101
lowerneck -21.1123 -5.28998 -13.8568
upperneck 21.7758 -6.46735 13.6443
head 11.528 -2.4584 6.38482
rclavicle 2.43263e-014 1.82882e-014
rhumerus -48.5545 6.08671 -84.8178
rradius 27.9402
rwrist -12.0132
rhand -25.0309 -27.977
rfingers 7.12502
rthumb 1.48174 -57.9516
lclavicle 2.43263e-014 1.82882e-014
lhumerus -32.877 -15.2436 95.3091
lradius 31.2113
lwrist 4.82599
lhand -13.0438 -24.8405
lfingers 7.12502
lthumb 13.051 4.73115
rfemur -41.104 3.58745 14.3439
rtibia 34.4314
rfoot -8.67661 -7.43419
rtoes -19.5976
lfemur 21.4695 6.19536 -24.2852
ltibia 3.49861e-014
lfoot -8.0643 -11.2466
ltoes -4.06995
327
root 10.4947 16.6124 12.7861 6.63492 6.50659 4.46646
lowerback -8.15846 -3.70797 -7.12067
upperback -1.0779 -4.3694 1.72485
thorax 4.11771 -2.29775 5.27829
lowerneck -21.6 -5.30696 -13.8837
upperneck 21.9853 -6.39341 13.4919
head 11.6845 -2.42981 6.3534
rclavicle 2.90971e-014 1.11319e-014
rhumerus -48.4698 5.62271 -84.3224
rradius 27.8651
rwrist -11.3296
rhand -19.4399 -32.1902
rfingers 7.12502
rthumb 6.88056 -62.0583
lclavicle 2.90971e-014 1.11319e-014
lhumerus -33.1604 -14.8587 95.5734
lradius 30.3734
lwrist 4.53899
lhand -12.7951 -24.5425
lfingers 7.12502
lthumb 13.2907 5.01372
rfemur -40.8681 3.37013 15.3133
rtibia 35.1775
rfoot -7.35215 -7.43559
rtoes -20.7358
lfemur 22.1025 6.26183 -23.2818
ltibia -3.81667e-014
lfoot -6.89418 -11.1319
ltoes -3.8055
328
root 10.4788 16.605 12.9724 6.56564 6.51638 4.34002
lowerback -8.22437 -3.67715 -7.06194
upperback -1.04664 -4.33387 1.8569
thorax 4.18838 -2.28397 5.38503
lowerneck -21.8953 -5.2944 -13.8961
upperneck 22.0408 -6.25694 13.2155
head 11.7292 -2.39261 6.27231
rclavicle 1.37037e-014 -1.66979e-014
rhumerus -48.4745 5.63254 -84.0972
rradius 27.7589
rwrist -11.0457
rhand -19.9842 -31.9349
rfingers 7.12502
rthumb 6.35507 -61.8195
lclavicle 1.37037e-014 -1.66979e-014
lhumerus -33.5416 -14.6119 95.9742
lradius 29.4184
lwrist 4.33669
lhand -13.1394 -24.6296
lfingers 7.12502
lthumb 12.9588 4.94794
rfemur -40.7093 3.20231 15.7181
rtibia 36.0042
rfoot -6.56735 -7.20618
rtoes -20.2047
lfemur 22.7784 6.46604 -22.819
ltibia -6.36111e-015
lfoot -5.48359 -11.1557
ltoes -4.40181
329
root 10.4574 16.6003 13.1594 6.39459 6.46357 4.1982
lowerback -8.25717 -3.54815 -6.96389
upperback -0.937654 -4.16738 1.87881
thorax 4.29118 -2.20662 5.37118
lowerneck -22.0737 -5.37762 -13.8382
upperneck 21.9689 -6.30734 13.0114
head 11.7345 -2.42816 6.16882
rclavicle 4.29499e-014 -4.77083e-015
rhumerus -48.1692 5.15651 -83.7877
rradius 27.2745
rwrist -10.292
rhand -28.7931 -24.473
rfingers 7.12502
rthumb -2.15185 -54.4419
lclavicle 4.29499e-014 -4.77083e-015
lhumerus -33.9342 -14.703 96.2711
lradius 28.5161
lwrist 4.08956
lhand -13.8055 -24.6843
lfingers 7.12502
lthumb 12.3166 4.9329
rfemur -40.4457 3.05846 16.1827
rtibia 36.8885
rfoot -6.46975 -6.54998
rtoes -18.2776
lfemur 23.4962 6.7327 -22.3167
ltibia 3.18055e-015
lfoot -4.2565 -11.3952
ltoes -8.39148
330
root 10.4405 16.5995 13.3391 6.27773 6.40636 3.9497
lowerback -8.25186 -3.43903 -6.66621
upperback -0.90896 -4.0492 1.88526
thorax 4.28042 -2.14318 5.22587
lowerneck -22.0143 -5.45023 -13.8871
upperneck 21.7758 -6.39176 13.0391
head 11.6665 -2.46771 6.1642
rclavicle -4.41053e-015 1.51076e-014
rhumerus -47.9367 4.83089 -83.6623
rradius 26.7972
rwrist -9.75413
rhand -30.4912 -21.1584
rfingers 7.12502
rthumb -3.79183 -51.1045
lclavicle -4.41053e-015 1.51076e-014
lhumerus -34.2976 -13.8906 96.1265
lradius 27.5391
lwrist 2.91234
lhand -13.6396 -24.5945
lfingers 7.12502
lthumb 12.4766 5.01308
rfemur -40.1783 2.76358 16.8296
rtibia 37.7918
rfoot -6.51251 -5.52295
rtoes -15.0648
lfemur 24.1226 7.01379 -21.74
ltibia -1.27222e-014
lfoot -2.86035 -11.2941
ltoes -11.7734
331
root 10.4287 16.6055 13.5165 6.27918 6.30767 3.71477
lowerback -8.34227 -3.4356 -6.44752
upperback -0.824678 -4.06215 1.99028
thorax 4.41406 -2.15341 5.20448
lowerneck -22.4719 -5.48104 -13.9751
upperneck 21.741 -6.35062 13.0884
head 11.7407 -2.4358 6.20609
rclavicle -3.34207e-014 7.15625e-015
rhumerus -47.5273 5.24979 -83.7805
rradius 26.5236
rwrist -9.99283
rhand -32.9188 -14.3023
rfingers 7.12502
rthumb -6.1358 -44.1935
lclavicle -3.34207e-014 7.15625e-015
lhumerus -34.3884 -12.3057 95.7
lradius 26.5351
lwrist 1.22343
lhand -12.9923 -24.5223
lfingers 7.12502
lthumb 13.1006 5.04622
rfemur -39.9547 2.57459 17.3878
rtibia 38.6337
rfoot -6.66163 -4.68122
rtoes -11.6739
lfemur 24.6797 7.32782 -21.2111
ltibia -1.11319e-013
lfoot -0.0898857 -10.9464
ltoes -8.31115
332
root 10.4087 16.6096 13.6888 6.15884 6.31638 3.26696
lowerback -8.1796 -3.37346 -6.06332
upperback -1.08112 -4.03513 2.15692
thorax 4.03532 -2.11671 5.18255
lowerneck -21.601 -5.39879 -14.3172
upperneck 21.4211 -6.26981 13.3215
head 11.4599 -2.42716 6.3546
rclavicle 3.721e-015 -1.35174e-014
rhumerus -47.8162 5.4445 -83.7761
rradius 26.213
rwrist -10.3905
rhand -19.9498 -29.376
rfingers 7.12502
rthumb 6.38827 -59.2597
lclavicle 3.721e-015 -1.35174e-014
lhumerus -35.4033 -11.7894 95.9062
lradius 25.6851
lwrist 0.601082
lhand -13.04 -24.3738
lfingers 7.12502
lthumb 13.0546 5.19772
rfemur -39.5641 2.60089 18.1187
rtibia 39.382
rfoot -7.01965 -4.2839
rtoes -8.27887
lfemur 25.3277 7.54486 -20.3942
ltibia -4.45278e-014
lfoot 2.72117 -10.4075
ltoes -5.94824
333
root 10.3807 16.6113 13.862 5.94325 6.50004 2.85642
lowerback -7.98018 -3.35443 -5.78713
upperback -1.05652 -4.05107 2.2914
thorax 3.94264 -2.1199 5.17529
lowerneck -21.5941 -5.34273 -14.1341
upperneck 21.3229 -6.16692 13.0388
head 11.3865 -2.39755 6.22355
rclavicle 7.66253e-014 -1.03368e-014
rhumerus -47.4449 5.27303 -83.6503
rradius 25.809
rwrist -10.5176
rhand -15.5576 -33.3508
rfingers 7.12502
rthumb 10.6269 -63.0621
lclavicle 7.66253e-014 -1.03368e-014
lhumerus -35.8252 -11.6148 96.0643
lradius 24.6866
lwrist 0.406956
lhand -13.3748 -24.1972
lfingers 7.12502
lthumb 12.7319 5.39462
rfemur -39.0309 2.61314 18.8084
rtibia 40.0447
rfoot -7.47654 -4.12785
rtoes -7.08871
lfemur 25.9561 7.5768 -19.5453
ltibia 2.8625e-014
lfoot 4.68063 -9.22038
ltoes -9.69096
334
root 10.3514 16.6231 14.0408 5.92546 6.72988 2.78927
lowerback -8.03384 -3.43224 -5.9509
upperback -1.02655 -4.14129 2.38689
thorax 4.03534 -2.172 5.35314
lowerneck -21.6481 -5.25685 -14.1388
upperneck 21.2846 -6.01154 12.9688
head 11.3543 -2.33362 6.2216
rclavicle 2.19409e-014 -2.06736e-014
rhumerus -47.0107 5.04848 -83.3304
rradius 25.6016
rwrist -10.0937
rhand -14.764 -34.0152
rfingers 7.12502
rthumb 11.3924 -63.6857
lclavicle 2.19409e-014 -2.06736e-014
lhumerus -35.7811 -9.75921 95.3877
lradius 23.7956
lwrist 0.182847
lhand -10.7496 -23.2629
lfingers 7.12502
lthumb 15.2617 6.15412
rfemur -38.5721 2.57444 19.1037
rtibia 40.5376
rfoot -8.04095 -4.02993
rtoes -13.346
lfemur 26.2801 7.53189 -19.048
ltibia -2.22639e-014
lfoot 7.96114 -7.64767
ltoes -8.45401
335
root 10.3228 16.6367 14.2184 5.98665 6.95416 2.69855
lowerback -8.23145 -3.48592 -6.11164
upperback -1.03356 -4.19147 2.48636
thorax 4.16492 -2.20429 5.5327
lowerneck -21.6287 -5.28125 -14.4075
upperneck 21.2615 -6.03329 13.2611
head 11.3664 -2.33225 6.37925
rclavicle 1.00076e-014 1.66979e-014
rhumerus -46.7003 4.79286 -83.0377
rradius 25.4157
rwrist -9.82489
rhand -14.4482 -34.8089
rfingers 7.12502
rthumb 11.6969 -64.4624
lclavicle 1.00076e-014 1.66979e-014
lhumerus -36.0737 -8.65028 95.1223
lradius 22.6791
lwrist -1.56935
lhand -11.0998 -23.4579
lfingers 7.12502
lthumb 14.9243 5.98441
rfemur -38.0617 2.55425 19.4224
rtibia 40.8098
rfoot -8.76098 -3.97083
rtoes -13.3274
lfemur 22.5562 7.77631 -18.4269
ltibia 7.58516
lfoot 8.5147 -8.23045
ltoes -6.22125
336
root 10.2981 16.66 14.39 5.86384 7.27327 2.23057
lowerback -8.19495 -3.45972 -5.75679
upperback -1.01397 -4.19388 2.57101
thorax 4.14632 -2.20035 5.42211
lowerneck -21.8548 -5.33989 -14.1569
upperneck 21.4579 -6.14346 13.0891
head 11.4864 -2.3753 6.25869
rclavicle -4.36767e-014 5.56597e-015
rhumerus -46.4184 4.20007 -82.7418
rradius 25.279
rwrist -9.33537
rhand -14.1946 -35.7226
rfingers 7.12502
rthumb 11.9414 -65.362
lclavicle -4.36767e-014 5.56597e-015
lhumerus -36.5355 -8.55338 95.0732
lradius 21.809
lwrist -2.94256
lhand -11.4624 -23.2846
lfingers 7.12502
lthumb 14.575 6.18329
rfemur -37.2181 2.44457 20.1692
rtibia 40.8339
rfoot -9.52484 -3.92553
rtoes -14.4669
lfemur 19.5862 7.95211 -17.4696
ltibia 13.8912
lfoot 8.50654 -8.97124
ltoes -9.71292
337
root 10.2782 16.6964 14.5528 5.6224 7.6315 1.60573
lowerback -7.89281 -3.39701 -5.13976
upperback -0.973632 -4.18273 2.65093
thorax 3.97966 -2.18204 5.17275
lowerneck -21.9483 -5.35549 -13.8633
upperneck 21.4103 -6.21921 12.9727
head 11.4838 -2.39483 6.14659
rclavicle -1.52878e-014 -3.18055e-015
rhumerus -46.0976 3.6362 -82.3605
rradius 25.4288
rwrist -8.36167
rhand -12.3983 -36.9556
rfingers 7.12502
rthumb 13.6732 -66.4864
lclavicle -1.52878e-014 -3.18055e-015
lhumerus -36.8604 -8.12707 94.7205
lradius 21.1683
lwrist -4.03439
lhand -10.3579 -22.5422
lfingers 7.12502
lthumb 15.639 6.84563
rfemur -36.1414 2.25021 21.0853
rtibia 40.6272
rfoot -10.1903 -3.87626
rtoes -15.5393
lfemur 17.4164 8.08348 -16.3801
ltibia 18.8466
lfoot 8.74059 -9.51707
ltoes -13.4111
338
root 10.2571 16.7272 14.7088 5.54983 7.85903 0.970129
lowerback -7.70581 -3.35684 -4.5526
upperback -1.07725 -4.19248 2.79536
thorax 3.73683 -2.17062 5.00387
lowerneck -21.6918 -5.29542 -13.9043
upperneck 21.3249 -6.19539 13.1512
head 11.4071 -2.37415 6.22387
rclavicle 9.03849e-015 -1.59028e-014
rhumerus -46.0575 3.88146 -82.3583
rradius 25.9466
rwrist -8.29617
rhand -10.5772 -37.0131
rfingers 7.12502
rthumb 15.4277 -66.4174
lclavicle 9.03849e-015 -1.59028e-014
lhumerus -37.3527 -7.24069 94.2563
lradius 20.6564
lwrist -5.18753
lhand -9.11082 -21.7293
lfingers 7.12502
lthumb 16.8398 7.56053
rfemur -35.2387 2.3204 21.9474
rtibia 40.2379
rfoot -10.7749 -3.91665
rtoes -15.2727
lfemur 15.272 8.09526 -15.3919
ltibia 23.3778
lfoot 9.0872 -9.39914
ltoes -12.0394
